<?xml version="1.0" encoding="iso-8859-1"?>
<svg xmlns="http://www.w3.org/2000/svg" viewBox="0 0 373.65 747.2" class="gangnam">
  <path d="M245,149.75q49.35,0,81.54-12.92t32.2-39.72H254.38V27.55H455.07q0,79.44-24,121.5t-66.74,56.63q-42.78,14.58-110,14.57ZM562.46,359.61q-20.91,20.44-52.87,20.44h-172q-32,0-52.88-20.44t-20.91-51.94q0-31.47,20.91-51.93t52.88-20.45h172q31.95,0,52.87,20.45t20.92,51.93Q583.38,339.17,562.46,359.61ZM361.07,298.74a8.93,8.93,0,1,0,0,17.86h125a8.93,8.93,0,1,0,0-17.86ZM583.38,80.66h35.25v71H583.38v63.92H495V22.85h88.36Z" transform="translate(-244.98 -22.85)" />
  <path d="M451.78,535.05V598.5H252V418h87.89v117ZM582,770.05H261.43V622.94H582ZM349.79,686.39V706.6H493.61V686.39ZM581,475.36h35.25v71H581v59.22H492.67V412.85H581Z" transform="translate(-244.98 -22.85)" />
</svg>